<?xml version="1.0" encoding="UTF-8"?>
<svg id="Layer_1" data-name="Layer 1" xmlns="http://www.w3.org/2000/svg" viewBox="0 0 512 512">
  <defs>
    <style>
      .cls-1 {
        fill: #051f1e;
      }

      .cls-2 {
        fill: #95d02e;
      }

      .cls-3 {
        fill: #fffef0;
      }
    </style>
  </defs>
  <rect class="cls-1" y="0" width="512" height="512" rx="35.17" ry="35.17"/>
  <g>
    <g>
      <path class="cls-3" d="M360.61,382.89c-39.37,0-71.39-32.03-71.39-71.39s32.03-71.39,71.39-71.39,71.39,32.03,71.39,71.39-32.03,71.39-71.39,71.39ZM360.61,260.63c-28.05,0-50.87,22.82-50.87,50.87s22.82,50.87,50.87,50.87,50.87-22.82,50.87-50.87-22.82-50.87-50.87-50.87Z"/>
      <path class="cls-3" d="M151.39,380.83c-39.37,0-71.39-32.03-71.39-71.39s32.03-71.39,71.39-71.39,71.39,32.03,71.39,71.39-32.03,71.39-71.39,71.39ZM151.39,258.57c-28.05,0-50.87,22.82-50.87,50.87s22.82,50.87,50.87,50.87,50.87-22.82,50.87-50.87-22.82-50.87-50.87-50.87Z"/>
    </g>
    <path class="cls-2" d="M184.68,128.27c-22.65-1.05-44.23,7.05-60.76,22.83-16.59,15.84-26.11,38.08-26.11,61.02v36.31c7.29-7.16,15.99-12.86,25.65-16.66v-19.65c0-15.97,6.62-31.44,18.17-42.46,11.41-10.89,26.27-16.48,41.85-15.76,30.6,1.43,54.56,26.57,54.56,57.23v156.88c0,7.08,5.74,12.83,12.83,12.83s12.83-5.74,12.83-12.83v-156.88c0-44.39-34.71-80.78-79.02-82.85Z"/>
    <g>
      <path class="cls-3" d="M360.61,317.04c-4.08,0-7.94-2.45-9.54-6.47l-43.89-110.19c-1.12-2.81-3.8-4.63-6.83-4.63h-13.13c-5.67,0-10.26-4.59-10.26-10.26s4.59-10.26,10.26-10.26h13.13c11.48,0,21.65,6.89,25.9,17.56l43.89,110.19c2.1,5.27-.47,11.23-5.74,13.33-1.25.5-2.53.73-3.79.73Z"/>
      <path class="cls-3" d="M207.65,246.39c-5.67,0-10.26-4.59-10.26-10.26v-9.56c0-4.06-3.3-7.36-7.36-7.36h-22.9c-5.67,0-10.26-4.59-10.26-10.26s4.59-10.26,10.26-10.26h22.9c15.37,0,27.88,12.51,27.88,27.88v9.56c0,5.67-4.59,10.26-10.26,10.26Z"/>
      <path class="cls-3" d="M151.39,319.19c-2.19,0-4.4-.7-6.27-2.14-4.48-3.47-5.31-9.91-1.85-14.39l56.25-72.8c3.47-4.48,9.91-5.31,14.39-1.85,4.48,3.47,5.31,9.91,1.85,14.39l-56.25,72.8c-2.02,2.62-5.06,3.99-8.13,3.99Z"/>
      <g>
        <path class="cls-3" d="M228.33,225.87h-20.69c-5.67,0-10.26,4.59-10.26,10.26s4.59,10.26,10.26,10.26h20.69v-20.52Z"/>
        <path class="cls-3" d="M332.47,225.87h-59.65v20.52h59.65c5.67,0,10.26-4.59,10.26-10.26s-4.59-10.26-10.26-10.26Z"/>
      </g>
    </g>
  </g>
</svg>