<?xml version="1.0" encoding="UTF-8"?>
<svg id="Layer_1" data-name="Layer 1" xmlns="http://www.w3.org/2000/svg" viewBox="0 0 1401 249">
  <defs>
    <style>
      .cls-1 {
        font-family: Figtree-Bold, Figtree;
        font-size: 159.67px;
        font-weight: 700;
      }

      .cls-2 {
        letter-spacing: 0em;
      }

      .cls-3 {
        fill: #051f1e;
      }

      .cls-4 {
        fill: #95d02e;
      }

      .cls-5 {
        letter-spacing: 0em;
      }
    </style>
  </defs>
  <g>
    <g>
      <path class="cls-3" d="M273.23,248.64c-38.36,0-69.57-31.21-69.57-69.57s31.21-69.57,69.57-69.57,69.57,31.21,69.57,69.57-31.21,69.57-69.57,69.57ZM273.23,129.5c-27.33,0-49.57,22.24-49.57,49.57s22.24,49.57,49.57,49.57,49.57-22.24,49.57-49.57-22.24-49.57-49.57-49.57Z"/>
      <path class="cls-3" d="M69.35,246.64C30.99,246.64-.22,215.43-.22,177.06s31.21-69.57,69.57-69.57,69.57,31.21,69.57,69.57-31.21,69.57-69.57,69.57ZM69.35,127.49c-27.33,0-49.57,22.24-49.57,49.57s22.24,49.57,49.57,49.57,49.57-22.24,49.57-49.57-22.24-49.57-49.57-49.57Z"/>
    </g>
    <path class="cls-4" d="M101.79.52c-22.07-1.03-43.1,6.87-59.21,22.25-16.17,15.43-25.45,37.11-25.45,59.47v35.38c7.1-6.97,15.59-12.53,25-16.24v-19.15c0-15.56,6.45-30.64,17.71-41.38,11.12-10.61,25.6-16.06,40.78-15.36,29.81,1.39,53.17,25.89,53.17,55.77v152.88c0,6.9,5.6,12.5,12.5,12.5s12.5-5.6,12.5-12.5V81.26C178.79,38,144.97,2.54,101.79.52Z"/>
    <g>
      <path class="cls-3" d="M273.24,184.47c-3.97,0-7.73-2.39-9.29-6.3l-42.77-107.38c-1.09-2.74-3.71-4.52-6.66-4.52h-12.8c-5.52,0-10-4.48-10-10s4.48-10,10-10h12.8c11.19,0,21.1,6.72,25.24,17.12l42.77,107.38c2.04,5.13-.46,10.95-5.59,12.99-1.21.48-2.47.71-3.7.71Z"/>
      <path class="cls-3" d="M124.17,115.62c-5.52,0-10-4.48-10-10v-9.31c0-3.95-3.22-7.17-7.17-7.17h-22.31c-5.52,0-10-4.48-10-10s4.48-10,10-10h22.31c14.98,0,27.17,12.19,27.17,27.17v9.31c0,5.52-4.48,10-10,10Z"/>
      <path class="cls-3" d="M69.35,186.57c-2.14,0-4.29-.68-6.11-2.09-4.37-3.38-5.18-9.66-1.8-14.03l54.82-70.95c3.38-4.37,9.66-5.17,14.03-1.8,4.37,3.38,5.18,9.66,1.8,14.03l-54.82,70.95c-1.97,2.55-4.93,3.89-7.92,3.89Z"/>
      <g>
        <path class="cls-3" d="M144.33,95.62h-20.16c-5.52,0-10,4.48-10,10s4.48,10,10,10h20.16v-20Z"/>
        <path class="cls-3" d="M245.81,95.62h-58.13v20h58.13c5.52,0,10-4.48,10-10s-4.48-10-10-10Z"/>
      </g>
    </g>
  </g>
  <text class="cls-1" transform="translate(388.85 191.87)"><tspan x="0" y="0">Siklista</tspan><tspan class="cls-5" x="531.52" y="0">P</tspan><tspan class="cls-2" x="626.2" y="0">arking</tspan></text>
</svg>