<svg xmlns="http://www.w3.org/2000/svg" xmlns:xlink="http://www.w3.org/1999/xlink" width="1080" zoomAndPan="magnify" viewBox="0 0 810 581.249982" height="775" preserveAspectRatio="xMidYMid meet" version="1.0"><defs><clipPath id="4ac01bf59d"><path d="M 479 255 L 806 255 L 806 580.5 L 479 580.5 Z M 479 255 " clip-rule="nonzero"/></clipPath></defs><g clip-path="url(#4ac01bf59d)"><path fill="#051f1e" d="M 642.5 581.15625 C 552.78125 581.15625 479.785156 508.207031 479.785156 418.546875 C 479.785156 328.886719 552.78125 255.9375 642.5 255.9375 C 732.21875 255.9375 805.214844 328.886719 805.214844 418.546875 C 805.214844 508.210938 732.21875 581.15625 642.5 581.15625 Z M 642.5 302.6875 C 578.578125 302.6875 526.5625 354.667969 526.5625 418.546875 C 526.5625 482.429688 578.578125 534.410156 642.5 534.410156 C 706.421875 534.410156 758.4375 482.429688 758.4375 418.546875 C 758.4375 354.667969 706.421875 302.6875 642.5 302.6875 Z M 642.5 302.6875 " fill-opacity="1" fill-rule="nonzero"/></g><path fill="#051f1e" d="M 165.652344 576.484375 C 75.929688 576.484375 2.933594 503.535156 2.933594 413.851562 C 2.933594 324.167969 75.929688 251.242188 165.652344 251.242188 C 255.371094 251.242188 328.367188 324.191406 328.367188 413.851562 C 328.367188 503.511719 255.371094 576.460938 165.652344 576.460938 Z M 165.652344 297.988281 C 101.730469 297.988281 49.710938 349.972656 49.710938 413.851562 C 49.710938 477.730469 101.730469 529.710938 165.652344 529.710938 C 229.570312 529.710938 281.589844 477.730469 281.589844 413.851562 C 281.589844 349.972656 229.570312 297.988281 165.652344 297.988281 Z M 165.652344 297.988281 " fill-opacity="1" fill-rule="nonzero"/><path fill="#95d02e" d="M 241.523438 1.214844 C 189.90625 -1.191406 140.71875 17.273438 103.039062 53.222656 C 65.21875 89.285156 43.515625 139.960938 43.515625 192.222656 L 43.515625 274.917969 C 60.121094 258.628906 79.976562 245.632812 101.988281 236.960938 L 101.988281 192.199219 C 101.988281 155.832031 117.070312 120.582031 143.40625 95.480469 C 169.417969 70.679688 203.28125 57.941406 238.789062 59.578125 C 308.507812 62.828125 363.144531 120.09375 363.144531 189.933594 L 363.144531 547.265625 C 363.144531 563.394531 376.242188 576.484375 392.382812 576.484375 C 408.519531 576.484375 421.617188 563.394531 421.617188 547.265625 L 421.617188 189.933594 C 421.617188 88.820312 342.515625 5.9375 241.523438 1.214844 Z M 241.523438 1.214844 " fill-opacity="1" fill-rule="nonzero"/><path fill="#051f1e" d="M 642.523438 431.171875 C 633.238281 431.171875 624.445312 425.582031 620.796875 416.445312 L 520.761719 165.460938 C 518.210938 159.054688 512.085938 154.894531 505.183594 154.894531 L 475.246094 154.894531 C 462.335938 154.894531 451.859375 144.425781 451.859375 131.523438 C 451.859375 118.621094 462.335938 108.148438 475.246094 108.148438 L 505.183594 108.148438 C 531.355469 108.148438 554.535156 123.855469 564.21875 148.164062 L 664.253906 399.148438 C 669.023438 411.140625 663.175781 424.742188 651.175781 429.511719 C 648.347656 430.632812 645.402344 431.171875 642.523438 431.171875 Z M 642.523438 431.171875 " fill-opacity="1" fill-rule="nonzero"/><path fill="#051f1e" d="M 293.867188 270.242188 C 280.957031 270.242188 270.480469 259.773438 270.480469 246.871094 L 270.480469 225.109375 C 270.480469 215.878906 262.949219 208.351562 253.710938 208.351562 L 201.527344 208.351562 C 188.617188 208.351562 178.140625 197.878906 178.140625 184.976562 C 178.140625 172.074219 188.617188 161.605469 201.527344 161.605469 L 253.710938 161.605469 C 288.746094 161.605469 317.257812 190.097656 317.257812 225.109375 L 317.257812 246.871094 C 317.257812 259.773438 306.777344 270.242188 293.867188 270.242188 Z M 293.867188 270.242188 " fill-opacity="1" fill-rule="nonzero"/><path fill="#051f1e" d="M 165.652344 436.078125 C 160.644531 436.078125 155.617188 434.488281 151.359375 431.195312 C 141.140625 423.292969 139.246094 408.613281 147.148438 398.402344 L 275.367188 232.566406 C 283.273438 222.351562 297.960938 220.480469 308.179688 228.359375 C 318.402344 236.257812 320.296875 250.9375 312.390625 261.152344 L 184.175781 426.984375 C 179.566406 432.945312 172.644531 436.078125 165.652344 436.078125 Z M 165.652344 436.078125 " fill-opacity="1" fill-rule="nonzero"/><path fill="#051f1e" d="M 341.019531 223.496094 L 293.867188 223.496094 C 280.957031 223.496094 270.480469 233.96875 270.480469 246.871094 C 270.480469 259.773438 280.957031 270.242188 293.867188 270.242188 L 341.019531 270.242188 Z M 341.019531 223.496094 " fill-opacity="1" fill-rule="nonzero"/><path fill="#051f1e" d="M 578.367188 223.496094 L 442.410156 223.496094 L 442.410156 270.242188 L 578.367188 270.242188 C 591.277344 270.242188 601.757812 259.773438 601.757812 246.871094 C 601.757812 233.96875 591.277344 223.496094 578.367188 223.496094 Z M 578.367188 223.496094 " fill-opacity="1" fill-rule="nonzero"/></svg>